<svg xmlns="http://www.w3.org/2000/svg" xmlns:xlink="http://www.w3.org/1999/xlink" width="1920" zoomAndPan="magnify" viewBox="0 0 1440 809.999993" height="1080" preserveAspectRatio="xMidYMid meet" version="1.0"><defs><g/></defs><g fill="#ffffff" fill-opacity="1"><g transform="translate(3.299244, 480.947585)"><g><path d="M 65.734375 -231.1875 L 65.734375 -128.96875 C 71.117188 -135.09375 77.753906 -139.734375 85.640625 -142.890625 C 93.535156 -146.046875 101.664062 -147.625 110.03125 -147.625 C 130.269531 -147.625 147.257812 -140.332031 161 -125.75 C 174.738281 -111.175781 181.609375 -93.125 181.609375 -71.59375 C 181.609375 -49.675781 174.691406 -31.472656 160.859375 -16.984375 C 147.023438 -2.503906 129.988281 4.734375 109.75 4.734375 C 100.28125 4.734375 91.691406 2.925781 83.984375 -0.6875 C 76.273438 -4.3125 70.378906 -9.375 66.296875 -15.875 L 65.734375 -15.875 L 65.734375 0 L 15.046875 0 L 15.046875 -231.1875 Z M 96.65625 -39.28125 C 106.3125 -39.28125 114.15625 -42.109375 120.1875 -47.765625 C 126.226562 -53.429688 129.25 -61.28125 129.25 -71.3125 C 129.25 -80.78125 126.273438 -88.53125 120.328125 -94.5625 C 114.390625 -100.601562 106.40625 -103.625 96.375 -103.625 C 86.90625 -103.625 79.148438 -100.601562 73.109375 -94.5625 C 67.078125 -88.53125 64.0625 -80.78125 64.0625 -71.3125 C 64.0625 -61.65625 67.078125 -53.898438 73.109375 -48.046875 C 79.148438 -42.203125 87 -39.28125 96.65625 -39.28125 Z M 96.65625 -39.28125 "/></g></g></g><g fill="#ffffff" fill-opacity="1"><g transform="translate(166.761809, 480.947585)"><g><path d="M 122.28125 -142.890625 L 172.984375 -142.890625 L 172.984375 0 L 122.28125 0 L 122.28125 -15.875 L 121.71875 -15.875 C 113 -2.507812 98.609375 4.359375 78.546875 4.734375 C 58.492188 4.734375 41.457031 -2.503906 27.4375 -16.984375 C 13.414062 -31.472656 6.40625 -49.675781 6.40625 -71.59375 C 6.40625 -93.3125 13.414062 -111.410156 27.4375 -125.890625 C 41.457031 -140.378906 58.3125 -147.625 78 -147.625 C 96.5625 -147.257812 111.320312 -141.039062 122.28125 -128.96875 Z M 91.359375 -39.28125 C 101.015625 -39.28125 108.859375 -42.109375 114.890625 -47.765625 C 120.929688 -53.429688 123.953125 -61.28125 123.953125 -71.3125 C 123.953125 -80.78125 120.976562 -88.53125 115.03125 -94.5625 C 109.09375 -100.601562 101.109375 -103.625 91.078125 -103.625 C 81.609375 -103.625 73.851562 -100.601562 67.8125 -94.5625 C 61.78125 -88.53125 58.765625 -80.78125 58.765625 -71.3125 C 58.765625 -61.65625 61.78125 -53.898438 67.8125 -48.046875 C 73.851562 -42.203125 81.703125 -39.28125 91.359375 -39.28125 Z M 91.359375 -39.28125 "/></g></g></g><g fill="#ffffff" fill-opacity="1"><g transform="translate(330.224375, 480.947585)"><g><path d="M 123.953125 -96.09375 C 118.015625 -99.4375 110.863281 -101.015625 102.5 -100.828125 C 90.25 -100.828125 81.335938 -97.34375 75.765625 -90.375 C 70.191406 -83.414062 67.40625 -72.878906 67.40625 -58.765625 L 67.40625 0 L 16.71875 0 L 16.71875 -142.890625 L 67.40625 -142.890625 L 67.40625 -119.5 L 67.96875 -119.5 C 77.25 -136.394531 92.753906 -144.84375 114.484375 -144.84375 L 123.953125 -144.84375 Z M 123.953125 -96.09375 "/></g></g></g><g fill="#ffffff" fill-opacity="1"><g transform="translate(429.914367, 480.947585)"><g><path d="M 81.328125 -147.625 C 98.972656 -147.625 114.570312 -144.5625 128.125 -138.4375 L 111.140625 -106.125 C 102.222656 -110.769531 93.125 -113.09375 83.84375 -113.09375 C 79.570312 -113.09375 75.859375 -112.207031 72.703125 -110.4375 C 69.546875 -108.675781 67.96875 -106.3125 67.96875 -103.34375 C 67.96875 -97.769531 72.976562 -94.148438 83 -92.484375 L 90.8125 -90.8125 C 118.476562 -85.789062 132.3125 -71.675781 132.3125 -48.46875 C 132.3125 -32.125 126.179688 -19.21875 113.921875 -9.75 C 101.671875 -0.28125 85.332031 4.546875 64.90625 4.734375 C 44.664062 4.734375 25.445312 -0.742188 7.25 -11.703125 L 25.625 -47.078125 C 30.082031 -43.546875 36.347656 -40.25 44.421875 -37.1875 C 52.503906 -34.125 59.515625 -32.59375 65.453125 -32.59375 C 69.722656 -32.59375 73.484375 -33.566406 76.734375 -35.515625 C 79.984375 -37.460938 81.609375 -40.109375 81.609375 -43.453125 C 81.609375 -46.796875 80.03125 -49.488281 76.875 -51.53125 C 73.71875 -53.570312 68.425781 -55.335938 61 -56.828125 C 43.914062 -60.171875 32.492188 -65 26.734375 -71.3125 C 20.984375 -77.625 18.109375 -86.164062 18.109375 -96.9375 C 18.109375 -112.164062 23.957031 -124.421875 35.65625 -133.703125 C 47.351562 -142.984375 62.578125 -147.625 81.328125 -147.625 Z M 81.328125 -147.625 "/></g></g></g><g fill="#ffffff" fill-opacity="1"><g transform="translate(546.313317, 480.947585)"><g><path d="M 181.609375 -71.03125 C 181.609375 -49.488281 174.691406 -31.472656 160.859375 -16.984375 C 147.023438 -2.503906 130.082031 4.734375 110.03125 4.734375 C 100.925781 4.734375 92.566406 3.109375 84.953125 -0.140625 C 77.335938 -3.390625 70.929688 -7.894531 65.734375 -13.65625 L 65.734375 71.3125 L 15.046875 71.3125 L 15.046875 -142.890625 L 65.734375 -142.890625 L 65.734375 -126.734375 L 66.296875 -126.734375 C 70.566406 -133.421875 76.597656 -138.570312 84.390625 -142.1875 C 92.191406 -145.8125 100.644531 -147.625 109.75 -147.625 C 129.988281 -147.625 147.023438 -140.195312 160.859375 -125.34375 C 174.691406 -110.488281 181.609375 -92.382812 181.609375 -71.03125 Z M 96.65625 -39.28125 C 106.6875 -39.28125 114.625 -42.25 120.46875 -48.1875 C 126.320312 -54.132812 129.25 -61.84375 129.25 -71.3125 C 129.0625 -80.59375 125.992188 -88.25 120.046875 -94.28125 C 114.109375 -100.320312 106.21875 -103.4375 96.375 -103.625 C 86.90625 -103.625 79.148438 -100.601562 73.109375 -94.5625 C 67.078125 -88.53125 64.0625 -80.78125 64.0625 -71.3125 C 64.0625 -61.65625 67.078125 -53.898438 73.109375 -48.046875 C 79.148438 -42.203125 87 -39.28125 96.65625 -39.28125 Z M 96.65625 -39.28125 "/></g></g></g><g fill="#ffffff" fill-opacity="1"><g transform="translate(709.775919, 480.947585)"><g><path d="M 178.265625 -71.3125 C 178.265625 -48.84375 170.234375 -30.550781 154.171875 -16.4375 C 138.109375 -2.320312 117.453125 4.734375 92.203125 4.734375 C 67.128906 4.734375 46.515625 -2.273438 30.359375 -16.296875 C 14.203125 -30.316406 6.125 -48.65625 6.125 -71.3125 C 6.125 -93.78125 14.203125 -112.113281 30.359375 -126.3125 C 46.515625 -140.519531 67.128906 -147.625 92.203125 -147.625 C 117.265625 -147.625 137.875 -140.566406 154.03125 -126.453125 C 170.1875 -112.347656 178.265625 -93.96875 178.265625 -71.3125 Z M 92.203125 -39.28125 C 102.222656 -39.28125 110.15625 -42.25 116 -48.1875 C 121.851562 -54.132812 124.78125 -61.84375 124.78125 -71.3125 C 124.78125 -80.40625 121.8125 -88.0625 115.875 -94.28125 C 109.9375 -100.507812 101.953125 -103.625 91.921875 -103.625 C 82.453125 -103.625 74.695312 -100.601562 68.65625 -94.5625 C 62.625 -88.53125 59.609375 -80.78125 59.609375 -71.3125 C 59.609375 -61.65625 62.625 -53.898438 68.65625 -48.046875 C 74.695312 -42.203125 82.546875 -39.28125 92.203125 -39.28125 Z M 92.203125 -39.28125 "/></g></g></g><g fill="#ffffff" fill-opacity="1"><g transform="translate(867.668866, 480.947585)"><g><path d="M 178.265625 -71.3125 C 178.265625 -48.84375 170.234375 -30.550781 154.171875 -16.4375 C 138.109375 -2.320312 117.453125 4.734375 92.203125 4.734375 C 67.128906 4.734375 46.515625 -2.273438 30.359375 -16.296875 C 14.203125 -30.316406 6.125 -48.65625 6.125 -71.3125 C 6.125 -93.78125 14.203125 -112.113281 30.359375 -126.3125 C 46.515625 -140.519531 67.128906 -147.625 92.203125 -147.625 C 117.265625 -147.625 137.875 -140.566406 154.03125 -126.453125 C 170.1875 -112.347656 178.265625 -93.96875 178.265625 -71.3125 Z M 92.203125 -39.28125 C 102.222656 -39.28125 110.15625 -42.25 116 -48.1875 C 121.851562 -54.132812 124.78125 -61.84375 124.78125 -71.3125 C 124.78125 -80.40625 121.8125 -88.0625 115.875 -94.28125 C 109.9375 -100.507812 101.953125 -103.625 91.921875 -103.625 C 82.453125 -103.625 74.695312 -100.601562 68.65625 -94.5625 C 62.625 -88.53125 59.609375 -80.78125 59.609375 -71.3125 C 59.609375 -61.65625 62.625 -53.898438 68.65625 -48.046875 C 74.695312 -42.203125 82.546875 -39.28125 92.203125 -39.28125 Z M 92.203125 -39.28125 "/></g></g></g><g fill="#ffffff" fill-opacity="1"><g transform="translate(1025.561814, 480.947585)"><g><path d="M 178.265625 -71.3125 C 178.265625 -48.84375 170.234375 -30.550781 154.171875 -16.4375 C 138.109375 -2.320312 117.453125 4.734375 92.203125 4.734375 C 67.128906 4.734375 46.515625 -2.273438 30.359375 -16.296875 C 14.203125 -30.316406 6.125 -48.65625 6.125 -71.3125 C 6.125 -93.78125 14.203125 -112.113281 30.359375 -126.3125 C 46.515625 -140.519531 67.128906 -147.625 92.203125 -147.625 C 117.265625 -147.625 137.875 -140.566406 154.03125 -126.453125 C 170.1875 -112.347656 178.265625 -93.96875 178.265625 -71.3125 Z M 92.203125 -39.28125 C 102.222656 -39.28125 110.15625 -42.25 116 -48.1875 C 121.851562 -54.132812 124.78125 -61.84375 124.78125 -71.3125 C 124.78125 -80.40625 121.8125 -88.0625 115.875 -94.28125 C 109.9375 -100.507812 101.953125 -103.625 91.921875 -103.625 C 82.453125 -103.625 74.695312 -100.601562 68.65625 -94.5625 C 62.625 -88.53125 59.609375 -80.78125 59.609375 -71.3125 C 59.609375 -61.65625 62.625 -53.898438 68.65625 -48.046875 C 74.695312 -42.203125 82.546875 -39.28125 92.203125 -39.28125 Z M 92.203125 -39.28125 "/></g></g></g><g fill="#ffffff" fill-opacity="1"><g transform="translate(1183.454762, 480.947585)"><g><path d="M 167.40625 0 L 116.71875 0 L 116.71875 -78.546875 C 117.082031 -97.671875 109.46875 -107.234375 93.875 -107.234375 C 76.601562 -107.234375 67.78125 -96.460938 67.40625 -74.921875 L 67.40625 0 L 16.71875 0 L 16.71875 -142.890625 L 67.40625 -142.890625 L 67.40625 -124.515625 L 67.96875 -124.515625 C 73.539062 -132.867188 79.992188 -138.804688 87.328125 -142.328125 C 94.660156 -145.859375 103.429688 -147.625 113.640625 -147.625 C 132.023438 -147.4375 145.582031 -142.191406 154.3125 -131.890625 C 163.039062 -121.585938 167.40625 -107.425781 167.40625 -89.40625 Z M 167.40625 0 "/></g></g></g><g fill="#ffffff" fill-opacity="1"><g transform="translate(1341.069108, 480.947585)"><g><path d="M 80.5 -27.015625 C 80.5 -17.921875 77.203125 -10.210938 70.609375 -3.890625 C 64.015625 2.421875 56.445312 5.578125 47.90625 5.578125 C 39 5.578125 31.335938 2.421875 24.921875 -3.890625 C 18.515625 -10.210938 15.3125 -17.921875 15.3125 -27.015625 C 15.3125 -35.742188 18.46875 -43.359375 24.78125 -49.859375 C 31.101562 -56.359375 38.8125 -59.609375 47.90625 -59.609375 C 57.007812 -59.609375 64.71875 -56.40625 71.03125 -50 C 77.34375 -43.59375 80.5 -35.929688 80.5 -27.015625 Z M 80.5 -27.015625 "/></g></g></g></svg>