<svg xmlns="http://www.w3.org/2000/svg" xmlns:xlink="http://www.w3.org/1999/xlink" width="1920" zoomAndPan="magnify" viewBox="0 0 1440 809.999993" height="1080" preserveAspectRatio="xMidYMid meet" version="1.0"><defs><g/></defs><g fill="#000000" fill-opacity="1"><g transform="translate(145.430302, 466.065787)"><g><path d="M 52.703125 -185.34375 L 52.703125 -103.390625 C 57.015625 -108.304688 62.332031 -112.03125 68.65625 -114.5625 C 74.988281 -117.09375 81.503906 -118.359375 88.203125 -118.359375 C 104.429688 -118.359375 118.050781 -112.515625 129.0625 -100.828125 C 140.082031 -89.140625 145.59375 -74.660156 145.59375 -57.390625 C 145.59375 -39.828125 140.046875 -25.238281 128.953125 -13.625 C 117.867188 -2.007812 104.210938 3.796875 87.984375 3.796875 C 80.390625 3.796875 73.503906 2.347656 67.328125 -0.546875 C 61.148438 -3.453125 56.421875 -7.515625 53.140625 -12.734375 L 52.703125 -12.734375 L 52.703125 0 L 12.0625 0 L 12.0625 -185.34375 Z M 77.484375 -31.484375 C 85.234375 -31.484375 91.523438 -33.753906 96.359375 -38.296875 C 101.191406 -42.835938 103.609375 -49.128906 103.609375 -57.171875 C 103.609375 -64.765625 101.226562 -70.976562 96.46875 -75.8125 C 91.707031 -80.65625 85.304688 -83.078125 77.265625 -83.078125 C 69.671875 -83.078125 63.453125 -80.65625 58.609375 -75.8125 C 53.773438 -70.976562 51.359375 -64.765625 51.359375 -57.171875 C 51.359375 -49.429688 53.773438 -43.210938 58.609375 -38.515625 C 63.453125 -33.828125 69.742188 -31.484375 77.484375 -31.484375 Z M 77.484375 -31.484375 "/></g></g></g><g fill="#000000" fill-opacity="1"><g transform="translate(276.476133, 466.065787)"><g><path d="M 98.03125 -114.5625 L 138.671875 -114.5625 L 138.671875 0 L 98.03125 0 L 98.03125 -12.734375 L 97.59375 -12.734375 C 90.59375 -2.015625 79.050781 3.492188 62.96875 3.796875 C 46.894531 3.796875 33.238281 -2.007812 22 -13.625 C 10.757812 -25.238281 5.140625 -39.828125 5.140625 -57.390625 C 5.140625 -74.804688 10.757812 -89.320312 22 -100.9375 C 33.238281 -112.550781 46.75 -118.359375 62.53125 -118.359375 C 77.414062 -118.054688 89.25 -113.066406 98.03125 -103.390625 Z M 73.25 -31.484375 C 80.988281 -31.484375 87.273438 -33.753906 92.109375 -38.296875 C 96.953125 -42.835938 99.375 -49.128906 99.375 -57.171875 C 99.375 -64.765625 96.988281 -70.976562 92.21875 -75.8125 C 87.457031 -80.65625 81.054688 -83.078125 73.015625 -83.078125 C 65.429688 -83.078125 59.21875 -80.65625 54.375 -75.8125 C 49.539062 -70.976562 47.125 -64.765625 47.125 -57.171875 C 47.125 -49.429688 49.539062 -43.210938 54.375 -38.515625 C 59.21875 -33.828125 65.507812 -31.484375 73.25 -31.484375 Z M 73.25 -31.484375 "/></g></g></g><g fill="#000000" fill-opacity="1"><g transform="translate(407.521963, 466.065787)"><g><path d="M 99.375 -77.046875 C 94.613281 -79.722656 88.878906 -80.988281 82.171875 -80.84375 C 72.347656 -80.84375 65.203125 -78.050781 60.734375 -72.46875 C 56.273438 -66.882812 54.046875 -58.4375 54.046875 -47.125 L 54.046875 0 L 13.40625 0 L 13.40625 -114.5625 L 54.046875 -114.5625 L 54.046875 -95.796875 L 54.484375 -95.796875 C 61.929688 -109.347656 74.363281 -116.125 91.78125 -116.125 L 99.375 -116.125 Z M 99.375 -77.046875 "/></g></g></g><g fill="#000000" fill-opacity="1"><g transform="translate(487.442145, 466.065787)"><g><path d="M 65.203125 -118.359375 C 79.347656 -118.359375 91.851562 -115.898438 102.71875 -110.984375 L 89.109375 -85.078125 C 81.953125 -88.804688 74.65625 -90.671875 67.21875 -90.671875 C 63.789062 -90.671875 60.8125 -89.960938 58.28125 -88.546875 C 55.75 -87.128906 54.484375 -85.226562 54.484375 -82.84375 C 54.484375 -78.382812 58.503906 -75.484375 66.546875 -74.140625 L 72.796875 -72.796875 C 94.984375 -68.773438 106.078125 -57.460938 106.078125 -38.859375 C 106.078125 -25.753906 101.160156 -15.40625 91.328125 -7.8125 C 81.503906 -0.21875 68.40625 3.648438 52.03125 3.796875 C 35.800781 3.796875 20.394531 -0.59375 5.8125 -9.375 L 20.546875 -37.734375 C 24.117188 -34.910156 29.140625 -32.269531 35.609375 -29.8125 C 42.085938 -27.351562 47.710938 -26.125 52.484375 -26.125 C 55.898438 -26.125 58.910156 -26.90625 61.515625 -28.46875 C 64.128906 -30.03125 65.4375 -32.15625 65.4375 -34.84375 C 65.4375 -37.519531 64.171875 -39.675781 61.640625 -41.3125 C 59.109375 -42.945312 54.863281 -44.363281 48.90625 -45.5625 C 35.207031 -48.238281 26.050781 -52.109375 21.4375 -57.171875 C 16.820312 -62.234375 14.515625 -69.082031 14.515625 -77.71875 C 14.515625 -89.925781 19.203125 -99.75 28.578125 -107.1875 C 37.960938 -114.632812 50.171875 -118.359375 65.203125 -118.359375 Z M 65.203125 -118.359375 "/></g></g></g><g fill="#000000" fill-opacity="1"><g transform="translate(580.757681, 466.065787)"><g><path d="M 145.59375 -56.9375 C 145.59375 -39.675781 140.046875 -25.238281 128.953125 -13.625 C 117.867188 -2.007812 104.285156 3.796875 88.203125 3.796875 C 80.910156 3.796875 74.210938 2.492188 68.109375 -0.109375 C 62.003906 -2.710938 56.867188 -6.320312 52.703125 -10.9375 L 52.703125 57.171875 L 12.0625 57.171875 L 12.0625 -114.5625 L 52.703125 -114.5625 L 52.703125 -101.609375 L 53.140625 -101.609375 C 56.566406 -106.960938 61.40625 -111.09375 67.65625 -114 C 73.914062 -116.90625 80.691406 -118.359375 87.984375 -118.359375 C 104.210938 -118.359375 117.867188 -112.398438 128.953125 -100.484375 C 140.046875 -88.578125 145.59375 -74.0625 145.59375 -56.9375 Z M 77.484375 -31.484375 C 85.523438 -31.484375 91.890625 -33.863281 96.578125 -38.625 C 101.265625 -43.394531 103.609375 -49.578125 103.609375 -57.171875 C 103.460938 -64.609375 101.007812 -70.742188 96.25 -75.578125 C 91.488281 -80.421875 85.160156 -82.921875 77.265625 -83.078125 C 69.671875 -83.078125 63.453125 -80.65625 58.609375 -75.8125 C 53.773438 -70.976562 51.359375 -64.765625 51.359375 -57.171875 C 51.359375 -49.429688 53.773438 -43.210938 58.609375 -38.515625 C 63.453125 -33.828125 69.742188 -31.484375 77.484375 -31.484375 Z M 77.484375 -31.484375 "/></g></g></g><g fill="#000000" fill-opacity="1"><g transform="translate(711.803541, 466.065787)"><g><path d="M 142.921875 -57.171875 C 142.921875 -39.148438 136.476562 -24.484375 123.59375 -13.171875 C 110.71875 -1.859375 94.160156 3.796875 73.921875 3.796875 C 53.816406 3.796875 37.285156 -1.820312 24.328125 -13.0625 C 11.378906 -24.300781 4.90625 -39.003906 4.90625 -57.171875 C 4.90625 -75.179688 11.378906 -89.878906 24.328125 -101.265625 C 37.285156 -112.660156 53.816406 -118.359375 73.921875 -118.359375 C 94.015625 -118.359375 110.535156 -112.695312 123.484375 -101.375 C 136.441406 -90.0625 142.921875 -75.328125 142.921875 -57.171875 Z M 73.921875 -31.484375 C 81.953125 -31.484375 88.3125 -33.863281 93 -38.625 C 97.695312 -43.394531 100.046875 -49.578125 100.046875 -57.171875 C 100.046875 -64.460938 97.660156 -70.601562 92.890625 -75.59375 C 88.128906 -80.582031 81.726562 -83.078125 73.6875 -83.078125 C 66.09375 -83.078125 59.875 -80.65625 55.03125 -75.8125 C 50.195312 -70.976562 47.78125 -64.765625 47.78125 -57.171875 C 47.78125 -49.429688 50.195312 -43.210938 55.03125 -38.515625 C 59.875 -33.828125 66.171875 -31.484375 73.921875 -31.484375 Z M 73.921875 -31.484375 "/></g></g></g><g fill="#000000" fill-opacity="1"><g transform="translate(838.38428, 466.065787)"><g><path d="M 142.921875 -57.171875 C 142.921875 -39.148438 136.476562 -24.484375 123.59375 -13.171875 C 110.71875 -1.859375 94.160156 3.796875 73.921875 3.796875 C 53.816406 3.796875 37.285156 -1.820312 24.328125 -13.0625 C 11.378906 -24.300781 4.90625 -39.003906 4.90625 -57.171875 C 4.90625 -75.179688 11.378906 -89.878906 24.328125 -101.265625 C 37.285156 -112.660156 53.816406 -118.359375 73.921875 -118.359375 C 94.015625 -118.359375 110.535156 -112.695312 123.484375 -101.375 C 136.441406 -90.0625 142.921875 -75.328125 142.921875 -57.171875 Z M 73.921875 -31.484375 C 81.953125 -31.484375 88.3125 -33.863281 93 -38.625 C 97.695312 -43.394531 100.046875 -49.578125 100.046875 -57.171875 C 100.046875 -64.460938 97.660156 -70.601562 92.890625 -75.59375 C 88.128906 -80.582031 81.726562 -83.078125 73.6875 -83.078125 C 66.09375 -83.078125 59.875 -80.65625 55.03125 -75.8125 C 50.195312 -70.976562 47.78125 -64.765625 47.78125 -57.171875 C 47.78125 -49.429688 50.195312 -43.210938 55.03125 -38.515625 C 59.875 -33.828125 66.171875 -31.484375 73.921875 -31.484375 Z M 73.921875 -31.484375 "/></g></g></g><g fill="#000000" fill-opacity="1"><g transform="translate(964.96502, 466.065787)"><g><path d="M 142.921875 -57.171875 C 142.921875 -39.148438 136.476562 -24.484375 123.59375 -13.171875 C 110.71875 -1.859375 94.160156 3.796875 73.921875 3.796875 C 53.816406 3.796875 37.285156 -1.820312 24.328125 -13.0625 C 11.378906 -24.300781 4.90625 -39.003906 4.90625 -57.171875 C 4.90625 -75.179688 11.378906 -89.878906 24.328125 -101.265625 C 37.285156 -112.660156 53.816406 -118.359375 73.921875 -118.359375 C 94.015625 -118.359375 110.535156 -112.695312 123.484375 -101.375 C 136.441406 -90.0625 142.921875 -75.328125 142.921875 -57.171875 Z M 73.921875 -31.484375 C 81.953125 -31.484375 88.3125 -33.863281 93 -38.625 C 97.695312 -43.394531 100.046875 -49.578125 100.046875 -57.171875 C 100.046875 -64.460938 97.660156 -70.601562 92.890625 -75.59375 C 88.128906 -80.582031 81.726562 -83.078125 73.6875 -83.078125 C 66.09375 -83.078125 59.875 -80.65625 55.03125 -75.8125 C 50.195312 -70.976562 47.78125 -64.765625 47.78125 -57.171875 C 47.78125 -49.429688 50.195312 -43.210938 55.03125 -38.515625 C 59.875 -33.828125 66.171875 -31.484375 73.921875 -31.484375 Z M 73.921875 -31.484375 "/></g></g></g><g fill="#000000" fill-opacity="1"><g transform="translate(1091.54576, 466.065787)"><g><path d="M 134.203125 0 L 93.5625 0 L 93.5625 -62.96875 C 93.863281 -78.300781 87.757812 -85.96875 75.25 -85.96875 C 61.40625 -85.96875 54.335938 -77.335938 54.046875 -60.078125 L 54.046875 0 L 13.40625 0 L 13.40625 -114.5625 L 54.046875 -114.5625 L 54.046875 -99.828125 L 54.484375 -99.828125 C 58.953125 -106.523438 64.125 -111.285156 70 -114.109375 C 75.882812 -116.941406 82.921875 -118.359375 91.109375 -118.359375 C 105.847656 -118.203125 116.710938 -113.992188 123.703125 -105.734375 C 130.703125 -97.472656 134.203125 -86.125 134.203125 -71.6875 Z M 134.203125 0 "/></g></g></g><g fill="#000000" fill-opacity="1"><g transform="translate(1217.903148, 466.065787)"><g><path d="M 64.53125 -21.65625 C 64.53125 -14.363281 61.890625 -8.1875 56.609375 -3.125 C 51.328125 1.9375 45.257812 4.46875 38.40625 4.46875 C 31.257812 4.46875 25.117188 1.9375 19.984375 -3.125 C 14.847656 -8.1875 12.28125 -14.363281 12.28125 -21.65625 C 12.28125 -28.65625 14.8125 -34.757812 19.875 -39.96875 C 24.9375 -45.175781 31.113281 -47.78125 38.40625 -47.78125 C 45.707031 -47.78125 51.882812 -45.210938 56.9375 -40.078125 C 62 -34.941406 64.53125 -28.800781 64.53125 -21.65625 Z M 64.53125 -21.65625 "/></g></g></g><g fill="#000000" fill-opacity="1"><g transform="translate(396.618122, 571.899379)"><g><path d="M 23.15625 -26.171875 C 23.59375 -26.171875 23.953125 -26.019531 24.234375 -25.71875 C 24.515625 -25.414062 24.65625 -25.0625 24.65625 -24.65625 L 24.65625 -2.46875 C 24.65625 0.25 24.117188 2.539062 23.046875 4.40625 C 21.972656 6.269531 20.53125 7.675781 18.71875 8.625 C 16.90625 9.582031 14.84375 10.0625 12.53125 10.0625 C 11.09375 10.0625 9.757812 9.898438 8.53125 9.578125 C 7.300781 9.265625 6.300781 8.859375 5.53125 8.359375 C 5.132812 8.117188 4.832031 7.832031 4.625 7.5 C 4.425781 7.164062 4.410156 6.8125 4.578125 6.4375 C 4.742188 5.96875 5.003906 5.65625 5.359375 5.5 C 5.710938 5.351562 6.070312 5.363281 6.4375 5.53125 C 7.007812 5.832031 7.832031 6.203125 8.90625 6.640625 C 9.976562 7.078125 11.203125 7.296875 12.578125 7.296875 C 14.421875 7.296875 16.019531 6.910156 17.375 6.140625 C 18.738281 5.367188 19.789062 4.253906 20.53125 2.796875 C 21.269531 1.335938 21.640625 -0.398438 21.640625 -2.421875 L 21.640625 -6.046875 L 22 -4.828125 C 21.488281 -3.785156 20.769531 -2.863281 19.84375 -2.0625 C 18.925781 -1.257812 17.867188 -0.628906 16.671875 -0.171875 C 15.484375 0.273438 14.222656 0.5 12.890625 0.5 C 10.867188 0.5 9.195312 0.0859375 7.875 -0.734375 C 6.550781 -1.554688 5.566406 -2.6875 4.921875 -4.125 C 4.285156 -5.570312 3.96875 -7.265625 3.96875 -9.203125 L 3.96875 -24.65625 C 3.96875 -25.0625 4.101562 -25.414062 4.375 -25.71875 C 4.644531 -26.019531 5.015625 -26.171875 5.484375 -26.171875 C 5.921875 -26.171875 6.28125 -26.019531 6.5625 -25.71875 C 6.851562 -25.414062 7 -25.0625 7 -24.65625 L 7 -9.65625 C 7 -7.3125 7.507812 -5.5 8.53125 -4.21875 C 9.550781 -2.945312 11.21875 -2.3125 13.53125 -2.3125 C 14.976562 -2.3125 16.304688 -2.65625 17.515625 -3.34375 C 18.722656 -4.03125 19.710938 -4.9375 20.484375 -6.0625 C 21.253906 -7.1875 21.640625 -8.382812 21.640625 -9.65625 L 21.640625 -24.65625 C 21.640625 -25.0625 21.78125 -25.414062 22.0625 -25.71875 C 22.351562 -26.019531 22.71875 -26.171875 23.15625 -26.171875 Z M 23.15625 -26.171875 "/></g></g></g><g fill="#000000" fill-opacity="1"><g transform="translate(425.181312, 571.899379)"><g><path d="M 27.9375 -12.890625 C 27.9375 -10.335938 27.378906 -8.046875 26.265625 -6.015625 C 25.160156 -3.984375 23.648438 -2.390625 21.734375 -1.234375 C 19.828125 -0.078125 17.648438 0.5 15.203125 0.5 C 12.816406 0.5 10.660156 -0.078125 8.734375 -1.234375 C 6.804688 -2.390625 5.28125 -3.984375 4.15625 -6.015625 C 3.03125 -8.046875 2.46875 -10.335938 2.46875 -12.890625 C 2.46875 -15.472656 3.03125 -17.769531 4.15625 -19.78125 C 5.28125 -21.789062 6.804688 -23.382812 8.734375 -24.5625 C 10.660156 -25.738281 12.816406 -26.328125 15.203125 -26.328125 C 17.648438 -26.328125 19.828125 -25.738281 21.734375 -24.5625 C 23.648438 -23.382812 25.160156 -21.789062 26.265625 -19.78125 C 27.378906 -17.769531 27.9375 -15.472656 27.9375 -12.890625 Z M 24.90625 -12.890625 C 24.90625 -14.929688 24.484375 -16.75 23.640625 -18.34375 C 22.804688 -19.9375 21.660156 -21.191406 20.203125 -22.109375 C 18.742188 -23.035156 17.078125 -23.5 15.203125 -23.5 C 13.390625 -23.5 11.742188 -23.035156 10.265625 -22.109375 C 8.785156 -21.191406 7.617188 -19.9375 6.765625 -18.34375 C 5.910156 -16.75 5.484375 -14.929688 5.484375 -12.890625 C 5.484375 -10.835938 5.910156 -9.019531 6.765625 -7.4375 C 7.617188 -5.863281 8.785156 -4.613281 10.265625 -3.6875 C 11.742188 -2.769531 13.390625 -2.3125 15.203125 -2.3125 C 17.078125 -2.3125 18.742188 -2.769531 20.203125 -3.6875 C 21.660156 -4.613281 22.804688 -5.863281 23.640625 -7.4375 C 24.484375 -9.019531 24.90625 -10.835938 24.90625 -12.890625 Z M 24.90625 -12.890625 "/></g></g></g><g fill="#000000" fill-opacity="1"><g transform="translate(455.554884, 571.899379)"><g><path d="M 23.203125 -25.5625 C 23.640625 -25.5625 24 -25.410156 24.28125 -25.109375 C 24.570312 -24.804688 24.71875 -24.457031 24.71875 -24.0625 L 24.71875 -9.859375 C 24.71875 -6.535156 23.773438 -4 21.890625 -2.25 C 20.015625 -0.507812 17.484375 0.359375 14.296875 0.359375 C 11.140625 0.359375 8.628906 -0.507812 6.765625 -2.25 C 4.898438 -4 3.96875 -6.535156 3.96875 -9.859375 L 3.96875 -24.0625 C 3.96875 -24.457031 4.109375 -24.804688 4.390625 -25.109375 C 4.679688 -25.410156 5.046875 -25.5625 5.484375 -25.5625 C 5.921875 -25.5625 6.28125 -25.410156 6.5625 -25.109375 C 6.851562 -24.804688 7 -24.457031 7 -24.0625 L 7 -9.859375 C 7 -7.441406 7.644531 -5.601562 8.9375 -4.34375 C 10.226562 -3.09375 12.015625 -2.46875 14.296875 -2.46875 C 16.609375 -2.46875 18.414062 -3.09375 19.71875 -4.34375 C 21.03125 -5.601562 21.6875 -7.441406 21.6875 -9.859375 L 21.6875 -24.0625 C 21.6875 -24.457031 21.820312 -24.804688 22.09375 -25.109375 C 22.363281 -25.410156 22.734375 -25.5625 23.203125 -25.5625 Z M 23.203125 -25.5625 "/></g></g></g><g fill="#000000" fill-opacity="1"><g transform="translate(484.168392, 571.899379)"><g><path d="M 5.484375 0 C 5.015625 0 4.644531 -0.148438 4.375 -0.453125 C 4.101562 -0.753906 3.96875 -1.109375 3.96875 -1.515625 L 3.96875 -24.0625 C 3.96875 -24.457031 4.109375 -24.804688 4.390625 -25.109375 C 4.679688 -25.410156 5.046875 -25.5625 5.484375 -25.5625 C 5.921875 -25.5625 6.28125 -25.410156 6.5625 -25.109375 C 6.851562 -24.804688 7 -24.457031 7 -24.0625 L 7 -16.5 L 6.234375 -16.359375 C 6.335938 -17.535156 6.628906 -18.703125 7.109375 -19.859375 C 7.597656 -21.015625 8.265625 -22.078125 9.109375 -23.046875 C 9.953125 -24.023438 10.953125 -24.816406 12.109375 -25.421875 C 13.265625 -26.023438 14.5625 -26.328125 16 -26.328125 C 16.601562 -26.328125 17.191406 -26.195312 17.765625 -25.9375 C 18.335938 -25.6875 18.625 -25.28125 18.625 -24.71875 C 18.625 -24.207031 18.488281 -23.816406 18.21875 -23.546875 C 17.945312 -23.285156 17.628906 -23.15625 17.265625 -23.15625 C 16.960938 -23.15625 16.632812 -23.238281 16.28125 -23.40625 C 15.925781 -23.570312 15.460938 -23.65625 14.890625 -23.65625 C 13.953125 -23.65625 13.015625 -23.378906 12.078125 -22.828125 C 11.140625 -22.273438 10.285156 -21.523438 9.515625 -20.578125 C 8.742188 -19.640625 8.128906 -18.59375 7.671875 -17.4375 C 7.222656 -16.28125 7 -15.113281 7 -13.9375 L 7 -1.515625 C 7 -1.109375 6.847656 -0.753906 6.546875 -0.453125 C 6.242188 -0.148438 5.890625 0 5.484375 0 Z M 5.484375 0 "/></g></g></g><g fill="#000000" fill-opacity="1"><g transform="translate(503.528994, 571.899379)"><g/></g></g><g fill="#000000" fill-opacity="1"><g transform="translate(517.257455, 571.899379)"><g><path d="M 23.203125 -25.5625 C 23.640625 -25.5625 24 -25.410156 24.28125 -25.109375 C 24.570312 -24.804688 24.71875 -24.457031 24.71875 -24.0625 L 24.71875 -9.859375 C 24.71875 -6.535156 23.773438 -4 21.890625 -2.25 C 20.015625 -0.507812 17.484375 0.359375 14.296875 0.359375 C 11.140625 0.359375 8.628906 -0.507812 6.765625 -2.25 C 4.898438 -4 3.96875 -6.535156 3.96875 -9.859375 L 3.96875 -24.0625 C 3.96875 -24.457031 4.109375 -24.804688 4.390625 -25.109375 C 4.679688 -25.410156 5.046875 -25.5625 5.484375 -25.5625 C 5.921875 -25.5625 6.28125 -25.410156 6.5625 -25.109375 C 6.851562 -24.804688 7 -24.457031 7 -24.0625 L 7 -9.859375 C 7 -7.441406 7.644531 -5.601562 8.9375 -4.34375 C 10.226562 -3.09375 12.015625 -2.46875 14.296875 -2.46875 C 16.609375 -2.46875 18.414062 -3.09375 19.71875 -4.34375 C 21.03125 -5.601562 21.6875 -7.441406 21.6875 -9.859375 L 21.6875 -24.0625 C 21.6875 -24.457031 21.820312 -24.804688 22.09375 -25.109375 C 22.363281 -25.410156 22.734375 -25.5625 23.203125 -25.5625 Z M 23.203125 -25.5625 "/></g></g></g><g fill="#000000" fill-opacity="1"><g transform="translate(545.870962, 571.899379)"><g><path d="M 7.296875 -1.515625 C 7.296875 -1.109375 7.144531 -0.753906 6.84375 -0.453125 C 6.539062 -0.148438 6.1875 0 5.78125 0 C 5.351562 0 4.992188 -0.148438 4.703125 -0.453125 C 4.421875 -0.753906 4.28125 -1.109375 4.28125 -1.515625 L 4.28125 -35.734375 C 4.28125 -36.140625 4.429688 -36.492188 4.734375 -36.796875 C 5.035156 -37.097656 5.382812 -37.25 5.78125 -37.25 C 6.21875 -37.25 6.578125 -37.097656 6.859375 -36.796875 C 7.148438 -36.492188 7.296875 -36.140625 7.296875 -35.734375 Z M 7.296875 -1.515625 "/></g></g></g><g fill="#000000" fill-opacity="1"><g transform="translate(557.437039, 571.899379)"><g><path d="M 2.3125 -25.609375 L 14.046875 -25.609375 C 14.441406 -25.609375 14.773438 -25.46875 15.046875 -25.1875 C 15.316406 -24.90625 15.453125 -24.5625 15.453125 -24.15625 C 15.453125 -23.789062 15.316406 -23.472656 15.046875 -23.203125 C 14.773438 -22.929688 14.441406 -22.796875 14.046875 -22.796875 L 2.3125 -22.796875 C 1.914062 -22.796875 1.570312 -22.9375 1.28125 -23.21875 C 1 -23.507812 0.859375 -23.835938 0.859375 -24.203125 C 0.859375 -24.609375 1 -24.941406 1.28125 -25.203125 C 1.570312 -25.472656 1.914062 -25.609375 2.3125 -25.609375 Z M 7.5 -32.71875 C 7.9375 -32.71875 8.296875 -32.566406 8.578125 -32.265625 C 8.867188 -31.960938 9.015625 -31.609375 9.015625 -31.203125 L 9.015625 -5.9375 C 9.015625 -5 9.140625 -4.296875 9.390625 -3.828125 C 9.640625 -3.359375 9.960938 -3.046875 10.359375 -2.890625 C 10.765625 -2.742188 11.171875 -2.671875 11.578125 -2.671875 C 11.847656 -2.671875 12.085938 -2.710938 12.296875 -2.796875 C 12.515625 -2.878906 12.757812 -2.921875 13.03125 -2.921875 C 13.332031 -2.921875 13.59375 -2.800781 13.8125 -2.5625 C 14.03125 -2.332031 14.140625 -2.03125 14.140625 -1.65625 C 14.140625 -1.1875 13.867188 -0.789062 13.328125 -0.46875 C 12.796875 -0.15625 12.160156 0 11.421875 0 C 11.117188 0 10.664062 -0.0234375 10.0625 -0.078125 C 9.457031 -0.128906 8.835938 -0.3125 8.203125 -0.625 C 7.566406 -0.945312 7.035156 -1.507812 6.609375 -2.3125 C 6.191406 -3.113281 5.984375 -4.269531 5.984375 -5.78125 L 5.984375 -31.203125 C 5.984375 -31.609375 6.125 -31.960938 6.40625 -32.265625 C 6.695312 -32.566406 7.0625 -32.71875 7.5 -32.71875 Z M 7.5 -32.71875 "/></g></g></g><g fill="#000000" fill-opacity="1"><g transform="translate(574.48447, 571.899379)"><g><path d="M 6.890625 -1.515625 C 6.890625 -1.109375 6.738281 -0.753906 6.4375 -0.453125 C 6.132812 -0.148438 5.785156 0 5.390625 0 C 4.953125 0 4.585938 -0.148438 4.296875 -0.453125 C 4.015625 -0.753906 3.875 -1.109375 3.875 -1.515625 L 3.875 -24.65625 C 3.875 -25.0625 4.015625 -25.414062 4.296875 -25.71875 C 4.585938 -26.019531 4.953125 -26.171875 5.390625 -26.171875 C 5.828125 -26.171875 6.1875 -26.019531 6.46875 -25.71875 C 6.75 -25.414062 6.890625 -25.0625 6.890625 -24.65625 Z M 5.375 -29.546875 C 4.675781 -29.546875 4.148438 -29.703125 3.796875 -30.015625 C 3.441406 -30.335938 3.265625 -30.800781 3.265625 -31.40625 L 3.265625 -31.90625 C 3.265625 -32.507812 3.457031 -32.972656 3.84375 -33.296875 C 4.226562 -33.617188 4.757812 -33.78125 5.4375 -33.78125 C 6.070312 -33.78125 6.5625 -33.617188 6.90625 -33.296875 C 7.257812 -32.972656 7.4375 -32.507812 7.4375 -31.90625 L 7.4375 -31.40625 C 7.4375 -30.800781 7.257812 -30.335938 6.90625 -30.015625 C 6.5625 -29.703125 6.050781 -29.546875 5.375 -29.546875 Z M 5.375 -29.546875 "/></g></g></g><g fill="#000000" fill-opacity="1"><g transform="translate(585.245963, 571.899379)"><g><path d="M 15.546875 -25.921875 C 17.628906 -25.921875 19.40625 -25.375 20.875 -24.28125 C 22.351562 -23.1875 23.363281 -21.566406 23.90625 -19.421875 L 23.203125 -19.21875 L 23.5 -20.125 C 23.9375 -21.132812 24.664062 -22.082031 25.6875 -22.96875 C 26.71875 -23.863281 27.882812 -24.578125 29.1875 -25.109375 C 30.5 -25.648438 31.828125 -25.921875 33.171875 -25.921875 C 35.285156 -25.921875 36.988281 -25.46875 38.28125 -24.5625 C 39.570312 -23.65625 40.507812 -22.4375 41.09375 -20.90625 C 41.675781 -19.382812 41.96875 -17.664062 41.96875 -15.75 L 41.96875 -1.515625 C 41.96875 -1.109375 41.828125 -0.753906 41.546875 -0.453125 C 41.265625 -0.148438 40.90625 0 40.46875 0 C 40.03125 0 39.664062 -0.148438 39.375 -0.453125 C 39.09375 -0.753906 38.953125 -1.109375 38.953125 -1.515625 L 38.953125 -15.609375 C 38.953125 -16.984375 38.734375 -18.238281 38.296875 -19.375 C 37.859375 -20.519531 37.171875 -21.425781 36.234375 -22.09375 C 35.296875 -22.757812 34.039062 -23.09375 32.46875 -23.09375 C 31.082031 -23.09375 29.757812 -22.757812 28.5 -22.09375 C 27.25 -21.425781 26.226562 -20.519531 25.4375 -19.375 C 24.65625 -18.238281 24.265625 -16.984375 24.265625 -15.609375 L 24.265625 -1.515625 C 24.265625 -1.109375 24.117188 -0.753906 23.828125 -0.453125 C 23.546875 -0.148438 23.1875 0 22.75 0 C 22.3125 0 21.945312 -0.148438 21.65625 -0.453125 C 21.375 -0.753906 21.234375 -1.109375 21.234375 -1.515625 L 21.234375 -15.75 C 21.234375 -17.125 21.03125 -18.363281 20.625 -19.46875 C 20.226562 -20.582031 19.578125 -21.460938 18.671875 -22.109375 C 17.765625 -22.765625 16.539062 -23.09375 15 -23.09375 C 13.625 -23.09375 12.320312 -22.765625 11.09375 -22.109375 C 9.875 -21.460938 8.882812 -20.582031 8.125 -19.46875 C 7.375 -18.363281 7 -17.125 7 -15.75 L 7 -1.515625 C 7 -1.109375 6.847656 -0.753906 6.546875 -0.453125 C 6.242188 -0.148438 5.890625 0 5.484375 0 C 5.015625 0 4.644531 -0.148438 4.375 -0.453125 C 4.101562 -0.753906 3.96875 -1.109375 3.96875 -1.515625 L 3.96875 -24.0625 C 3.96875 -24.457031 4.109375 -24.804688 4.390625 -25.109375 C 4.679688 -25.410156 5.046875 -25.5625 5.484375 -25.5625 C 5.921875 -25.5625 6.28125 -25.410156 6.5625 -25.109375 C 6.851562 -24.804688 7 -24.457031 7 -24.0625 L 7 -19.375 L 5.640625 -17.515625 C 5.734375 -18.523438 6.054688 -19.53125 6.609375 -20.53125 C 7.171875 -21.539062 7.90625 -22.445312 8.8125 -23.25 C 9.71875 -24.050781 10.75 -24.695312 11.90625 -25.1875 C 13.0625 -25.675781 14.273438 -25.921875 15.546875 -25.921875 Z M 15.546875 -25.921875 "/></g></g></g><g fill="#000000" fill-opacity="1"><g transform="translate(631.108006, 571.899379)"><g><path d="M 25.0625 -25.71875 C 25.5 -25.71875 25.859375 -25.566406 26.140625 -25.265625 C 26.429688 -24.960938 26.578125 -24.59375 26.578125 -24.15625 L 26.578125 -1.515625 C 26.578125 -1.109375 26.425781 -0.753906 26.125 -0.453125 C 25.820312 -0.148438 25.46875 0 25.0625 0 C 24.625 0 24.257812 -0.148438 23.96875 -0.453125 C 23.6875 -0.753906 23.546875 -1.109375 23.546875 -1.515625 L 23.546875 -7.5 L 24.40625 -7.90625 C 24.40625 -6.96875 24.144531 -6.007812 23.625 -5.03125 C 23.101562 -4.0625 22.390625 -3.15625 21.484375 -2.3125 C 20.578125 -1.476562 19.507812 -0.800781 18.28125 -0.28125 C 17.0625 0.238281 15.75 0.5 14.34375 0.5 C 12.0625 0.5 10.019531 -0.0820312 8.21875 -1.25 C 6.425781 -2.425781 5.019531 -4.035156 4 -6.078125 C 2.976562 -8.128906 2.46875 -10.429688 2.46875 -12.984375 C 2.46875 -15.597656 2.988281 -17.90625 4.03125 -19.90625 C 5.070312 -21.90625 6.476562 -23.472656 8.25 -24.609375 C 10.03125 -25.753906 12.046875 -26.328125 14.296875 -26.328125 C 15.734375 -26.328125 17.082031 -26.070312 18.34375 -25.5625 C 19.601562 -25.0625 20.703125 -24.375 21.640625 -23.5 C 22.578125 -22.625 23.304688 -21.625 23.828125 -20.5 C 24.347656 -19.382812 24.609375 -18.222656 24.609375 -17.015625 L 23.546875 -17.765625 L 23.546875 -24.15625 C 23.546875 -24.59375 23.6875 -24.960938 23.96875 -25.265625 C 24.257812 -25.566406 24.625 -25.71875 25.0625 -25.71875 Z M 14.59375 -2.3125 C 16.375 -2.3125 17.953125 -2.769531 19.328125 -3.6875 C 20.703125 -4.613281 21.78125 -5.890625 22.5625 -7.515625 C 23.351562 -9.148438 23.75 -10.972656 23.75 -12.984375 C 23.75 -14.960938 23.351562 -16.738281 22.5625 -18.3125 C 21.78125 -19.894531 20.703125 -21.15625 19.328125 -22.09375 C 17.953125 -23.03125 16.375 -23.5 14.59375 -23.5 C 12.851562 -23.5 11.285156 -23.046875 9.890625 -22.140625 C 8.492188 -21.234375 7.398438 -19.988281 6.609375 -18.40625 C 5.828125 -16.832031 5.4375 -15.023438 5.4375 -12.984375 C 5.4375 -10.972656 5.828125 -9.148438 6.609375 -7.515625 C 7.398438 -5.890625 8.484375 -4.613281 9.859375 -3.6875 C 11.234375 -2.769531 12.8125 -2.3125 14.59375 -2.3125 Z M 14.59375 -2.3125 "/></g></g></g><g fill="#000000" fill-opacity="1"><g transform="translate(661.582158, 571.899379)"><g><path d="M 2.3125 -25.609375 L 14.046875 -25.609375 C 14.441406 -25.609375 14.773438 -25.46875 15.046875 -25.1875 C 15.316406 -24.90625 15.453125 -24.5625 15.453125 -24.15625 C 15.453125 -23.789062 15.316406 -23.472656 15.046875 -23.203125 C 14.773438 -22.929688 14.441406 -22.796875 14.046875 -22.796875 L 2.3125 -22.796875 C 1.914062 -22.796875 1.570312 -22.9375 1.28125 -23.21875 C 1 -23.507812 0.859375 -23.835938 0.859375 -24.203125 C 0.859375 -24.609375 1 -24.941406 1.28125 -25.203125 C 1.570312 -25.472656 1.914062 -25.609375 2.3125 -25.609375 Z M 7.5 -32.71875 C 7.9375 -32.71875 8.296875 -32.566406 8.578125 -32.265625 C 8.867188 -31.960938 9.015625 -31.609375 9.015625 -31.203125 L 9.015625 -5.9375 C 9.015625 -5 9.140625 -4.296875 9.390625 -3.828125 C 9.640625 -3.359375 9.960938 -3.046875 10.359375 -2.890625 C 10.765625 -2.742188 11.171875 -2.671875 11.578125 -2.671875 C 11.847656 -2.671875 12.085938 -2.710938 12.296875 -2.796875 C 12.515625 -2.878906 12.757812 -2.921875 13.03125 -2.921875 C 13.332031 -2.921875 13.59375 -2.800781 13.8125 -2.5625 C 14.03125 -2.332031 14.140625 -2.03125 14.140625 -1.65625 C 14.140625 -1.1875 13.867188 -0.789062 13.328125 -0.46875 C 12.796875 -0.15625 12.160156 0 11.421875 0 C 11.117188 0 10.664062 -0.0234375 10.0625 -0.078125 C 9.457031 -0.128906 8.835938 -0.3125 8.203125 -0.625 C 7.566406 -0.945312 7.035156 -1.507812 6.609375 -2.3125 C 6.191406 -3.113281 5.984375 -4.269531 5.984375 -5.78125 L 5.984375 -31.203125 C 5.984375 -31.609375 6.125 -31.960938 6.40625 -32.265625 C 6.695312 -32.566406 7.0625 -32.71875 7.5 -32.71875 Z M 7.5 -32.71875 "/></g></g></g><g fill="#000000" fill-opacity="1"><g transform="translate(678.629589, 571.899379)"><g><path d="M 15.609375 0.5 C 13.015625 0.5 10.726562 -0.0507812 8.75 -1.15625 C 6.769531 -2.257812 5.226562 -3.800781 4.125 -5.78125 C 3.019531 -7.757812 2.46875 -10.078125 2.46875 -12.734375 C 2.46875 -15.585938 3.03125 -18.019531 4.15625 -20.03125 C 5.28125 -22.039062 6.738281 -23.59375 8.53125 -24.6875 C 10.320312 -25.78125 12.226562 -26.328125 14.25 -26.328125 C 15.71875 -26.328125 17.148438 -26.066406 18.546875 -25.546875 C 19.941406 -25.023438 21.179688 -24.25 22.265625 -23.21875 C 23.359375 -22.195312 24.234375 -20.945312 24.890625 -19.46875 C 25.546875 -18 25.90625 -16.289062 25.96875 -14.34375 C 25.9375 -13.9375 25.769531 -13.59375 25.46875 -13.3125 C 25.164062 -13.03125 24.8125 -12.890625 24.40625 -12.890625 L 4.234375 -12.890625 L 3.625 -15.609375 L 23.453125 -15.609375 L 22.796875 -15 L 22.796875 -16 C 22.660156 -17.582031 22.15625 -18.925781 21.28125 -20.03125 C 20.414062 -21.132812 19.359375 -21.972656 18.109375 -22.546875 C 16.867188 -23.117188 15.582031 -23.40625 14.25 -23.40625 C 13.238281 -23.40625 12.203125 -23.203125 11.140625 -22.796875 C 10.085938 -22.390625 9.132812 -21.757812 8.28125 -20.90625 C 7.425781 -20.050781 6.726562 -18.960938 6.1875 -17.640625 C 5.65625 -16.316406 5.390625 -14.75 5.390625 -12.9375 C 5.390625 -10.957031 5.789062 -9.160156 6.59375 -7.546875 C 7.394531 -5.941406 8.554688 -4.664062 10.078125 -3.71875 C 11.609375 -2.78125 13.429688 -2.3125 15.546875 -2.3125 C 16.722656 -2.3125 17.78125 -2.476562 18.71875 -2.8125 C 19.65625 -3.15625 20.476562 -3.601562 21.1875 -4.15625 C 21.894531 -4.707031 22.484375 -5.285156 22.953125 -5.890625 C 23.316406 -6.191406 23.6875 -6.34375 24.0625 -6.34375 C 24.394531 -6.34375 24.6875 -6.207031 24.9375 -5.9375 C 25.1875 -5.664062 25.3125 -5.363281 25.3125 -5.03125 C 25.3125 -4.625 25.144531 -4.269531 24.8125 -3.96875 C 23.800781 -2.769531 22.488281 -1.722656 20.875 -0.828125 C 19.269531 0.0546875 17.515625 0.5 15.609375 0.5 Z M 15.609375 0.5 "/></g></g></g><g fill="#000000" fill-opacity="1"><g transform="translate(707.041936, 571.899379)"><g/></g></g><g fill="#000000" fill-opacity="1"><g transform="translate(720.770397, 571.899379)"><g><path d="M 15.296875 -26.328125 C 16.910156 -26.328125 18.382812 -26.148438 19.71875 -25.796875 C 21.0625 -25.441406 22.144531 -24.960938 22.96875 -24.359375 C 23.789062 -23.753906 24.203125 -23.097656 24.203125 -22.390625 C 24.203125 -22.054688 24.082031 -21.726562 23.84375 -21.40625 C 23.613281 -21.09375 23.300781 -20.9375 22.90625 -20.9375 C 22.5 -20.9375 22.171875 -21.035156 21.921875 -21.234375 C 21.671875 -21.441406 21.414062 -21.675781 21.15625 -21.9375 C 20.90625 -22.207031 20.546875 -22.460938 20.078125 -22.703125 C 19.640625 -22.898438 19.019531 -23.082031 18.21875 -23.25 C 17.414062 -23.414062 16.492188 -23.5 15.453125 -23.5 C 13.566406 -23.5 11.867188 -23.03125 10.359375 -22.09375 C 8.859375 -21.15625 7.671875 -19.890625 6.796875 -18.296875 C 5.921875 -16.703125 5.484375 -14.914062 5.484375 -12.9375 C 5.484375 -10.925781 5.898438 -9.113281 6.734375 -7.5 C 7.578125 -5.882812 8.738281 -4.613281 10.21875 -3.6875 C 11.695312 -2.769531 13.425781 -2.3125 15.40625 -2.3125 C 16.738281 -2.3125 17.773438 -2.425781 18.515625 -2.65625 C 19.253906 -2.894531 19.894531 -3.164062 20.4375 -3.46875 C 21.070312 -3.84375 21.53125 -4.203125 21.8125 -4.546875 C 22.101562 -4.898438 22.484375 -5.078125 22.953125 -5.078125 C 23.390625 -5.078125 23.71875 -4.953125 23.9375 -4.703125 C 24.15625 -4.453125 24.265625 -4.125 24.265625 -3.71875 C 24.265625 -3.1875 23.867188 -2.59375 23.078125 -1.9375 C 22.285156 -1.28125 21.203125 -0.707031 19.828125 -0.21875 C 18.453125 0.257812 16.875 0.5 15.09375 0.5 C 12.582031 0.5 10.378906 -0.0820312 8.484375 -1.25 C 6.585938 -2.425781 5.109375 -4.03125 4.046875 -6.0625 C 2.992188 -8.09375 2.46875 -10.382812 2.46875 -12.9375 C 2.46875 -15.382812 3.003906 -17.613281 4.078125 -19.625 C 5.148438 -21.632812 6.648438 -23.253906 8.578125 -24.484375 C 10.503906 -25.710938 12.742188 -26.328125 15.296875 -26.328125 Z M 15.296875 -26.328125 "/></g></g></g><g fill="#000000" fill-opacity="1"><g transform="translate(746.819257, 571.899379)"><g><path d="M 27.9375 -12.890625 C 27.9375 -10.335938 27.378906 -8.046875 26.265625 -6.015625 C 25.160156 -3.984375 23.648438 -2.390625 21.734375 -1.234375 C 19.828125 -0.078125 17.648438 0.5 15.203125 0.5 C 12.816406 0.5 10.660156 -0.078125 8.734375 -1.234375 C 6.804688 -2.390625 5.28125 -3.984375 4.15625 -6.015625 C 3.03125 -8.046875 2.46875 -10.335938 2.46875 -12.890625 C 2.46875 -15.472656 3.03125 -17.769531 4.15625 -19.78125 C 5.28125 -21.789062 6.804688 -23.382812 8.734375 -24.5625 C 10.660156 -25.738281 12.816406 -26.328125 15.203125 -26.328125 C 17.648438 -26.328125 19.828125 -25.738281 21.734375 -24.5625 C 23.648438 -23.382812 25.160156 -21.789062 26.265625 -19.78125 C 27.378906 -17.769531 27.9375 -15.472656 27.9375 -12.890625 Z M 24.90625 -12.890625 C 24.90625 -14.929688 24.484375 -16.75 23.640625 -18.34375 C 22.804688 -19.9375 21.660156 -21.191406 20.203125 -22.109375 C 18.742188 -23.035156 17.078125 -23.5 15.203125 -23.5 C 13.390625 -23.5 11.742188 -23.035156 10.265625 -22.109375 C 8.785156 -21.191406 7.617188 -19.9375 6.765625 -18.34375 C 5.910156 -16.75 5.484375 -14.929688 5.484375 -12.890625 C 5.484375 -10.835938 5.910156 -9.019531 6.765625 -7.4375 C 7.617188 -5.863281 8.785156 -4.613281 10.265625 -3.6875 C 11.742188 -2.769531 13.390625 -2.3125 15.203125 -2.3125 C 17.078125 -2.3125 18.742188 -2.769531 20.203125 -3.6875 C 21.660156 -4.613281 22.804688 -5.863281 23.640625 -7.4375 C 24.484375 -9.019531 24.90625 -10.835938 24.90625 -12.890625 Z M 24.90625 -12.890625 "/></g></g></g><g fill="#000000" fill-opacity="1"><g transform="translate(777.192829, 571.899379)"><g><path d="M 15.296875 -26.328125 C 16.910156 -26.328125 18.382812 -26.148438 19.71875 -25.796875 C 21.0625 -25.441406 22.144531 -24.960938 22.96875 -24.359375 C 23.789062 -23.753906 24.203125 -23.097656 24.203125 -22.390625 C 24.203125 -22.054688 24.082031 -21.726562 23.84375 -21.40625 C 23.613281 -21.09375 23.300781 -20.9375 22.90625 -20.9375 C 22.5 -20.9375 22.171875 -21.035156 21.921875 -21.234375 C 21.671875 -21.441406 21.414062 -21.675781 21.15625 -21.9375 C 20.90625 -22.207031 20.546875 -22.460938 20.078125 -22.703125 C 19.640625 -22.898438 19.019531 -23.082031 18.21875 -23.25 C 17.414062 -23.414062 16.492188 -23.5 15.453125 -23.5 C 13.566406 -23.5 11.867188 -23.03125 10.359375 -22.09375 C 8.859375 -21.15625 7.671875 -19.890625 6.796875 -18.296875 C 5.921875 -16.703125 5.484375 -14.914062 5.484375 -12.9375 C 5.484375 -10.925781 5.898438 -9.113281 6.734375 -7.5 C 7.578125 -5.882812 8.738281 -4.613281 10.21875 -3.6875 C 11.695312 -2.769531 13.425781 -2.3125 15.40625 -2.3125 C 16.738281 -2.3125 17.773438 -2.425781 18.515625 -2.65625 C 19.253906 -2.894531 19.894531 -3.164062 20.4375 -3.46875 C 21.070312 -3.84375 21.53125 -4.203125 21.8125 -4.546875 C 22.101562 -4.898438 22.484375 -5.078125 22.953125 -5.078125 C 23.390625 -5.078125 23.71875 -4.953125 23.9375 -4.703125 C 24.15625 -4.453125 24.265625 -4.125 24.265625 -3.71875 C 24.265625 -3.1875 23.867188 -2.59375 23.078125 -1.9375 C 22.285156 -1.28125 21.203125 -0.707031 19.828125 -0.21875 C 18.453125 0.257812 16.875 0.5 15.09375 0.5 C 12.582031 0.5 10.378906 -0.0820312 8.484375 -1.25 C 6.585938 -2.425781 5.109375 -4.03125 4.046875 -6.0625 C 2.992188 -8.09375 2.46875 -10.382812 2.46875 -12.9375 C 2.46875 -15.382812 3.003906 -17.613281 4.078125 -19.625 C 5.148438 -21.632812 6.648438 -23.253906 8.578125 -24.484375 C 10.503906 -25.710938 12.742188 -26.328125 15.296875 -26.328125 Z M 15.296875 -26.328125 "/></g></g></g><g fill="#000000" fill-opacity="1"><g transform="translate(803.241688, 571.899379)"><g><path d="M 5.78125 0 C 5.351562 0 4.992188 -0.148438 4.703125 -0.453125 C 4.421875 -0.753906 4.28125 -1.109375 4.28125 -1.515625 L 4.28125 -35.734375 C 4.28125 -36.140625 4.421875 -36.492188 4.703125 -36.796875 C 4.992188 -37.097656 5.351562 -37.25 5.78125 -37.25 C 6.21875 -37.25 6.578125 -37.097656 6.859375 -36.796875 C 7.148438 -36.492188 7.296875 -36.140625 7.296875 -35.734375 L 7.296875 -1.515625 C 7.296875 -1.109375 7.148438 -0.753906 6.859375 -0.453125 C 6.578125 -0.148438 6.21875 0 5.78125 0 Z M 22.90625 -25.8125 C 23.269531 -25.8125 23.601562 -25.648438 23.90625 -25.328125 C 24.207031 -25.015625 24.359375 -24.675781 24.359375 -24.3125 C 24.359375 -23.875 24.175781 -23.488281 23.8125 -23.15625 L 6.890625 -8.75 L 6.75 -12.328125 L 21.84375 -25.3125 C 22.144531 -25.644531 22.5 -25.8125 22.90625 -25.8125 Z M 23.296875 0 C 22.859375 0 22.488281 -0.179688 22.1875 -0.546875 L 10.71875 -12.734375 L 12.984375 -14.796875 L 24.359375 -2.671875 C 24.660156 -2.335938 24.8125 -1.953125 24.8125 -1.515625 C 24.8125 -1.046875 24.625 -0.675781 24.25 -0.40625 C 23.882812 -0.132812 23.566406 0 23.296875 0 Z M 23.296875 0 "/></g></g></g><g fill="#000000" fill-opacity="1"><g transform="translate(830.145393, 571.899379)"><g><path d="M 2.3125 -25.609375 L 14.046875 -25.609375 C 14.441406 -25.609375 14.773438 -25.46875 15.046875 -25.1875 C 15.316406 -24.90625 15.453125 -24.5625 15.453125 -24.15625 C 15.453125 -23.789062 15.316406 -23.472656 15.046875 -23.203125 C 14.773438 -22.929688 14.441406 -22.796875 14.046875 -22.796875 L 2.3125 -22.796875 C 1.914062 -22.796875 1.570312 -22.9375 1.28125 -23.21875 C 1 -23.507812 0.859375 -23.835938 0.859375 -24.203125 C 0.859375 -24.609375 1 -24.941406 1.28125 -25.203125 C 1.570312 -25.472656 1.914062 -25.609375 2.3125 -25.609375 Z M 7.5 -32.71875 C 7.9375 -32.71875 8.296875 -32.566406 8.578125 -32.265625 C 8.867188 -31.960938 9.015625 -31.609375 9.015625 -31.203125 L 9.015625 -5.9375 C 9.015625 -5 9.140625 -4.296875 9.390625 -3.828125 C 9.640625 -3.359375 9.960938 -3.046875 10.359375 -2.890625 C 10.765625 -2.742188 11.171875 -2.671875 11.578125 -2.671875 C 11.847656 -2.671875 12.085938 -2.710938 12.296875 -2.796875 C 12.515625 -2.878906 12.757812 -2.921875 13.03125 -2.921875 C 13.332031 -2.921875 13.59375 -2.800781 13.8125 -2.5625 C 14.03125 -2.332031 14.140625 -2.03125 14.140625 -1.65625 C 14.140625 -1.1875 13.867188 -0.789062 13.328125 -0.46875 C 12.796875 -0.15625 12.160156 0 11.421875 0 C 11.117188 0 10.664062 -0.0234375 10.0625 -0.078125 C 9.457031 -0.128906 8.835938 -0.3125 8.203125 -0.625 C 7.566406 -0.945312 7.035156 -1.507812 6.609375 -2.3125 C 6.191406 -3.113281 5.984375 -4.269531 5.984375 -5.78125 L 5.984375 -31.203125 C 5.984375 -31.609375 6.125 -31.960938 6.40625 -32.265625 C 6.695312 -32.566406 7.0625 -32.71875 7.5 -32.71875 Z M 7.5 -32.71875 "/></g></g></g><g fill="#000000" fill-opacity="1"><g transform="translate(847.192824, 571.899379)"><g><path d="M 25.0625 -25.71875 C 25.5 -25.71875 25.859375 -25.566406 26.140625 -25.265625 C 26.429688 -24.960938 26.578125 -24.59375 26.578125 -24.15625 L 26.578125 -1.515625 C 26.578125 -1.109375 26.425781 -0.753906 26.125 -0.453125 C 25.820312 -0.148438 25.46875 0 25.0625 0 C 24.625 0 24.257812 -0.148438 23.96875 -0.453125 C 23.6875 -0.753906 23.546875 -1.109375 23.546875 -1.515625 L 23.546875 -7.5 L 24.40625 -7.90625 C 24.40625 -6.96875 24.144531 -6.007812 23.625 -5.03125 C 23.101562 -4.0625 22.390625 -3.15625 21.484375 -2.3125 C 20.578125 -1.476562 19.507812 -0.800781 18.28125 -0.28125 C 17.0625 0.238281 15.75 0.5 14.34375 0.5 C 12.0625 0.5 10.019531 -0.0820312 8.21875 -1.25 C 6.425781 -2.425781 5.019531 -4.035156 4 -6.078125 C 2.976562 -8.128906 2.46875 -10.429688 2.46875 -12.984375 C 2.46875 -15.597656 2.988281 -17.90625 4.03125 -19.90625 C 5.070312 -21.90625 6.476562 -23.472656 8.25 -24.609375 C 10.03125 -25.753906 12.046875 -26.328125 14.296875 -26.328125 C 15.734375 -26.328125 17.082031 -26.070312 18.34375 -25.5625 C 19.601562 -25.0625 20.703125 -24.375 21.640625 -23.5 C 22.578125 -22.625 23.304688 -21.625 23.828125 -20.5 C 24.347656 -19.382812 24.609375 -18.222656 24.609375 -17.015625 L 23.546875 -17.765625 L 23.546875 -24.15625 C 23.546875 -24.59375 23.6875 -24.960938 23.96875 -25.265625 C 24.257812 -25.566406 24.625 -25.71875 25.0625 -25.71875 Z M 14.59375 -2.3125 C 16.375 -2.3125 17.953125 -2.769531 19.328125 -3.6875 C 20.703125 -4.613281 21.78125 -5.890625 22.5625 -7.515625 C 23.351562 -9.148438 23.75 -10.972656 23.75 -12.984375 C 23.75 -14.960938 23.351562 -16.738281 22.5625 -18.3125 C 21.78125 -19.894531 20.703125 -21.15625 19.328125 -22.09375 C 17.953125 -23.03125 16.375 -23.5 14.59375 -23.5 C 12.851562 -23.5 11.285156 -23.046875 9.890625 -22.140625 C 8.492188 -21.234375 7.398438 -19.988281 6.609375 -18.40625 C 5.828125 -16.832031 5.4375 -15.023438 5.4375 -12.984375 C 5.4375 -10.972656 5.828125 -9.148438 6.609375 -7.515625 C 7.398438 -5.890625 8.484375 -4.613281 9.859375 -3.6875 C 11.234375 -2.769531 12.8125 -2.3125 14.59375 -2.3125 Z M 14.59375 -2.3125 "/></g></g></g><g fill="#000000" fill-opacity="1"><g transform="translate(877.666976, 571.899379)"><g><path d="M 6.890625 -1.515625 C 6.890625 -1.109375 6.738281 -0.753906 6.4375 -0.453125 C 6.132812 -0.148438 5.785156 0 5.390625 0 C 4.953125 0 4.585938 -0.148438 4.296875 -0.453125 C 4.015625 -0.753906 3.875 -1.109375 3.875 -1.515625 L 3.875 -24.65625 C 3.875 -25.0625 4.015625 -25.414062 4.296875 -25.71875 C 4.585938 -26.019531 4.953125 -26.171875 5.390625 -26.171875 C 5.828125 -26.171875 6.1875 -26.019531 6.46875 -25.71875 C 6.75 -25.414062 6.890625 -25.0625 6.890625 -24.65625 Z M 5.375 -29.546875 C 4.675781 -29.546875 4.148438 -29.703125 3.796875 -30.015625 C 3.441406 -30.335938 3.265625 -30.800781 3.265625 -31.40625 L 3.265625 -31.90625 C 3.265625 -32.507812 3.457031 -32.972656 3.84375 -33.296875 C 4.226562 -33.617188 4.757812 -33.78125 5.4375 -33.78125 C 6.070312 -33.78125 6.5625 -33.617188 6.90625 -33.296875 C 7.257812 -32.972656 7.4375 -32.507812 7.4375 -31.90625 L 7.4375 -31.40625 C 7.4375 -30.800781 7.257812 -30.335938 6.90625 -30.015625 C 6.5625 -29.703125 6.050781 -29.546875 5.375 -29.546875 Z M 5.375 -29.546875 "/></g></g></g><g fill="#000000" fill-opacity="1"><g transform="translate(888.428469, 571.899379)"><g><path d="M 7.296875 -1.515625 C 7.296875 -1.109375 7.144531 -0.753906 6.84375 -0.453125 C 6.539062 -0.148438 6.1875 0 5.78125 0 C 5.351562 0 4.992188 -0.148438 4.703125 -0.453125 C 4.421875 -0.753906 4.28125 -1.109375 4.28125 -1.515625 L 4.28125 -35.734375 C 4.28125 -36.140625 4.429688 -36.492188 4.734375 -36.796875 C 5.035156 -37.097656 5.382812 -37.25 5.78125 -37.25 C 6.21875 -37.25 6.578125 -37.097656 6.859375 -36.796875 C 7.148438 -36.492188 7.296875 -36.140625 7.296875 -35.734375 Z M 7.296875 -1.515625 "/></g></g></g><g fill="#000000" fill-opacity="1"><g transform="translate(899.994546, 571.899379)"><g/></g></g><g fill="#000000" fill-opacity="1"><g transform="translate(913.723007, 571.899379)"><g><path d="M 14.703125 -26.328125 C 16.203125 -26.328125 17.585938 -26.066406 18.859375 -25.546875 C 20.140625 -25.023438 21.257812 -24.351562 22.21875 -23.53125 C 23.175781 -22.707031 23.921875 -21.832031 24.453125 -20.90625 C 24.992188 -19.988281 25.265625 -19.109375 25.265625 -18.265625 L 24.40625 -19.484375 L 24.40625 -24.15625 C 24.40625 -24.59375 24.546875 -24.960938 24.828125 -25.265625 C 25.117188 -25.566406 25.484375 -25.71875 25.921875 -25.71875 C 26.390625 -25.71875 26.753906 -25.566406 27.015625 -25.265625 C 27.285156 -24.960938 27.421875 -24.59375 27.421875 -24.15625 L 27.421875 -2.359375 C 27.421875 0.316406 26.867188 2.578125 25.765625 4.421875 C 24.660156 6.273438 23.160156 7.675781 21.265625 8.625 C 19.367188 9.582031 17.210938 10.0625 14.796875 10.0625 C 13.617188 10.0625 12.382812 9.910156 11.09375 9.609375 C 9.800781 9.304688 8.691406 8.921875 7.765625 8.453125 C 6.847656 7.984375 6.335938 7.5 6.234375 7 C 5.972656 6.695312 5.847656 6.398438 5.859375 6.109375 C 5.878906 5.828125 6.023438 5.585938 6.296875 5.390625 C 6.628906 5.148438 6.976562 5.125 7.34375 5.3125 C 7.71875 5.5 8.273438 5.742188 9.015625 6.046875 C 9.347656 6.140625 9.796875 6.285156 10.359375 6.484375 C 10.929688 6.691406 11.613281 6.867188 12.40625 7.015625 C 13.195312 7.171875 14.023438 7.25 14.890625 7.25 C 17.910156 7.25 20.25 6.382812 21.90625 4.65625 C 23.570312 2.925781 24.40625 0.648438 24.40625 -2.171875 L 24.40625 -7 L 24.96875 -6.84375 C 24.664062 -5.632812 24.171875 -4.578125 23.484375 -3.671875 C 22.796875 -2.765625 21.976562 -2 21.03125 -1.375 C 20.09375 -0.757812 19.078125 -0.296875 17.984375 0.015625 C 16.898438 0.335938 15.820312 0.5 14.75 0.5 C 12.4375 0.5 10.351562 -0.0820312 8.5 -1.25 C 6.65625 -2.425781 5.1875 -4.019531 4.09375 -6.03125 C 3.007812 -8.050781 2.46875 -10.351562 2.46875 -12.9375 C 2.46875 -15.488281 3.007812 -17.773438 4.09375 -19.796875 C 5.1875 -21.828125 6.644531 -23.421875 8.46875 -24.578125 C 10.300781 -25.742188 12.378906 -26.328125 14.703125 -26.328125 Z M 15.046875 -23.5 C 13.203125 -23.5 11.550781 -23.035156 10.09375 -22.109375 C 8.632812 -21.191406 7.492188 -19.9375 6.671875 -18.34375 C 5.847656 -16.75 5.4375 -14.945312 5.4375 -12.9375 C 5.4375 -10.925781 5.847656 -9.113281 6.671875 -7.5 C 7.492188 -5.882812 8.632812 -4.613281 10.09375 -3.6875 C 11.550781 -2.769531 13.203125 -2.3125 15.046875 -2.3125 C 16.890625 -2.3125 18.53125 -2.765625 19.96875 -3.671875 C 21.414062 -4.578125 22.554688 -5.828125 23.390625 -7.421875 C 24.234375 -9.015625 24.65625 -10.851562 24.65625 -12.9375 C 24.65625 -15.007812 24.234375 -16.84375 23.390625 -18.4375 C 22.554688 -20.03125 21.414062 -21.269531 19.96875 -22.15625 C 18.53125 -23.050781 16.890625 -23.5 15.046875 -23.5 Z M 15.046875 -23.5 "/></g></g></g><g fill="#000000" fill-opacity="1"><g transform="translate(945.102322, 571.899379)"><g><path d="M 23.203125 -25.5625 C 23.640625 -25.5625 24 -25.410156 24.28125 -25.109375 C 24.570312 -24.804688 24.71875 -24.457031 24.71875 -24.0625 L 24.71875 -9.859375 C 24.71875 -6.535156 23.773438 -4 21.890625 -2.25 C 20.015625 -0.507812 17.484375 0.359375 14.296875 0.359375 C 11.140625 0.359375 8.628906 -0.507812 6.765625 -2.25 C 4.898438 -4 3.96875 -6.535156 3.96875 -9.859375 L 3.96875 -24.0625 C 3.96875 -24.457031 4.109375 -24.804688 4.390625 -25.109375 C 4.679688 -25.410156 5.046875 -25.5625 5.484375 -25.5625 C 5.921875 -25.5625 6.28125 -25.410156 6.5625 -25.109375 C 6.851562 -24.804688 7 -24.457031 7 -24.0625 L 7 -9.859375 C 7 -7.441406 7.644531 -5.601562 8.9375 -4.34375 C 10.226562 -3.09375 12.015625 -2.46875 14.296875 -2.46875 C 16.609375 -2.46875 18.414062 -3.09375 19.71875 -4.34375 C 21.03125 -5.601562 21.6875 -7.441406 21.6875 -9.859375 L 21.6875 -24.0625 C 21.6875 -24.457031 21.820312 -24.804688 22.09375 -25.109375 C 22.363281 -25.410156 22.734375 -25.5625 23.203125 -25.5625 Z M 23.203125 -25.5625 "/></g></g></g><g fill="#000000" fill-opacity="1"><g transform="translate(973.71583, 571.899379)"><g><path d="M 6.890625 -1.515625 C 6.890625 -1.109375 6.738281 -0.753906 6.4375 -0.453125 C 6.132812 -0.148438 5.785156 0 5.390625 0 C 4.953125 0 4.585938 -0.148438 4.296875 -0.453125 C 4.015625 -0.753906 3.875 -1.109375 3.875 -1.515625 L 3.875 -24.65625 C 3.875 -25.0625 4.015625 -25.414062 4.296875 -25.71875 C 4.585938 -26.019531 4.953125 -26.171875 5.390625 -26.171875 C 5.828125 -26.171875 6.1875 -26.019531 6.46875 -25.71875 C 6.75 -25.414062 6.890625 -25.0625 6.890625 -24.65625 Z M 5.375 -29.546875 C 4.675781 -29.546875 4.148438 -29.703125 3.796875 -30.015625 C 3.441406 -30.335938 3.265625 -30.800781 3.265625 -31.40625 L 3.265625 -31.90625 C 3.265625 -32.507812 3.457031 -32.972656 3.84375 -33.296875 C 4.226562 -33.617188 4.757812 -33.78125 5.4375 -33.78125 C 6.070312 -33.78125 6.5625 -33.617188 6.90625 -33.296875 C 7.257812 -32.972656 7.4375 -32.507812 7.4375 -31.90625 L 7.4375 -31.40625 C 7.4375 -30.800781 7.257812 -30.335938 6.90625 -30.015625 C 6.5625 -29.703125 6.050781 -29.546875 5.375 -29.546875 Z M 5.375 -29.546875 "/></g></g></g><g fill="#000000" fill-opacity="1"><g transform="translate(984.477323, 571.899379)"><g><path d="M 25.0625 -37.25 C 25.5 -37.25 25.859375 -37.101562 26.140625 -36.8125 C 26.429688 -36.53125 26.578125 -36.171875 26.578125 -35.734375 L 26.578125 -1.515625 C 26.578125 -1.109375 26.425781 -0.753906 26.125 -0.453125 C 25.820312 -0.148438 25.46875 0 25.0625 0 C 24.625 0 24.257812 -0.148438 23.96875 -0.453125 C 23.6875 -0.753906 23.546875 -1.109375 23.546875 -1.515625 L 23.546875 -7.5 L 24.40625 -8.203125 C 24.40625 -7.265625 24.15625 -6.28125 23.65625 -5.25 C 23.15625 -4.226562 22.441406 -3.28125 21.515625 -2.40625 C 20.585938 -1.539062 19.507812 -0.835938 18.28125 -0.296875 C 17.0625 0.234375 15.75 0.5 14.34375 0.5 C 12.09375 0.5 10.070312 -0.0820312 8.28125 -1.25 C 6.488281 -2.425781 5.070312 -4.019531 4.03125 -6.03125 C 2.988281 -8.050781 2.46875 -10.351562 2.46875 -12.9375 C 2.46875 -15.488281 2.988281 -17.773438 4.03125 -19.796875 C 5.070312 -21.828125 6.476562 -23.421875 8.25 -24.578125 C 10.03125 -25.742188 12.046875 -26.328125 14.296875 -26.328125 C 15.671875 -26.328125 16.976562 -26.070312 18.21875 -25.5625 C 19.457031 -25.0625 20.554688 -24.375 21.515625 -23.5 C 22.472656 -22.625 23.226562 -21.625 23.78125 -20.5 C 24.332031 -19.382812 24.609375 -18.222656 24.609375 -17.015625 L 23.546875 -17.765625 L 23.546875 -35.734375 C 23.546875 -36.140625 23.6875 -36.492188 23.96875 -36.796875 C 24.257812 -37.097656 24.625 -37.25 25.0625 -37.25 Z M 14.59375 -2.3125 C 16.40625 -2.3125 17.988281 -2.769531 19.34375 -3.6875 C 20.707031 -4.613281 21.78125 -5.875 22.5625 -7.46875 C 23.351562 -9.0625 23.75 -10.882812 23.75 -12.9375 C 23.75 -14.945312 23.351562 -16.75 22.5625 -18.34375 C 21.78125 -19.9375 20.703125 -21.191406 19.328125 -22.109375 C 17.953125 -23.035156 16.375 -23.5 14.59375 -23.5 C 12.851562 -23.5 11.285156 -23.035156 9.890625 -22.109375 C 8.492188 -21.191406 7.398438 -19.9375 6.609375 -18.34375 C 5.828125 -16.75 5.4375 -14.945312 5.4375 -12.9375 C 5.4375 -10.925781 5.828125 -9.113281 6.609375 -7.5 C 7.398438 -5.882812 8.492188 -4.613281 9.890625 -3.6875 C 11.285156 -2.769531 12.851562 -2.3125 14.59375 -2.3125 Z M 14.59375 -2.3125 "/></g></g></g><g fill="#000000" fill-opacity="1"><g transform="translate(1014.951475, 571.899379)"><g><path d="M 15.609375 0.5 C 13.015625 0.5 10.726562 -0.0507812 8.75 -1.15625 C 6.769531 -2.257812 5.226562 -3.800781 4.125 -5.78125 C 3.019531 -7.757812 2.46875 -10.078125 2.46875 -12.734375 C 2.46875 -15.585938 3.03125 -18.019531 4.15625 -20.03125 C 5.28125 -22.039062 6.738281 -23.59375 8.53125 -24.6875 C 10.320312 -25.78125 12.226562 -26.328125 14.25 -26.328125 C 15.71875 -26.328125 17.148438 -26.066406 18.546875 -25.546875 C 19.941406 -25.023438 21.179688 -24.25 22.265625 -23.21875 C 23.359375 -22.195312 24.234375 -20.945312 24.890625 -19.46875 C 25.546875 -18 25.90625 -16.289062 25.96875 -14.34375 C 25.9375 -13.9375 25.769531 -13.59375 25.46875 -13.3125 C 25.164062 -13.03125 24.8125 -12.890625 24.40625 -12.890625 L 4.234375 -12.890625 L 3.625 -15.609375 L 23.453125 -15.609375 L 22.796875 -15 L 22.796875 -16 C 22.660156 -17.582031 22.15625 -18.925781 21.28125 -20.03125 C 20.414062 -21.132812 19.359375 -21.972656 18.109375 -22.546875 C 16.867188 -23.117188 15.582031 -23.40625 14.25 -23.40625 C 13.238281 -23.40625 12.203125 -23.203125 11.140625 -22.796875 C 10.085938 -22.390625 9.132812 -21.757812 8.28125 -20.90625 C 7.425781 -20.050781 6.726562 -18.960938 6.1875 -17.640625 C 5.65625 -16.316406 5.390625 -14.75 5.390625 -12.9375 C 5.390625 -10.957031 5.789062 -9.160156 6.59375 -7.546875 C 7.394531 -5.941406 8.554688 -4.664062 10.078125 -3.71875 C 11.609375 -2.78125 13.429688 -2.3125 15.546875 -2.3125 C 16.722656 -2.3125 17.78125 -2.476562 18.71875 -2.8125 C 19.65625 -3.15625 20.476562 -3.601562 21.1875 -4.15625 C 21.894531 -4.707031 22.484375 -5.285156 22.953125 -5.890625 C 23.316406 -6.191406 23.6875 -6.34375 24.0625 -6.34375 C 24.394531 -6.34375 24.6875 -6.207031 24.9375 -5.9375 C 25.1875 -5.664062 25.3125 -5.363281 25.3125 -5.03125 C 25.3125 -4.625 25.144531 -4.269531 24.8125 -3.96875 C 23.800781 -2.769531 22.488281 -1.722656 20.875 -0.828125 C 19.269531 0.0546875 17.515625 0.5 15.609375 0.5 Z M 15.609375 0.5 "/></g></g></g></svg>